<?xml version="1.0" encoding="UTF-8"?>
<svg width="20px" height="20px" viewBox="0 0 20 20" version="1.1" xmlns="http://www.w3.org/2000/svg" xmlns:xlink="http://www.w3.org/1999/xlink">
    <title>icon_dingwei备份 14</title>
    <g id="页面-1" stroke="none" stroke-width="1" fill="none" fill-rule="evenodd">
        <g id="白帽后台-管理中心" transform="translate(-306.000000, -90.000000)">
            <g id="编组-4" transform="translate(306.000000, 90.000000)">
                <path d="M9.5,16.3513402 L9.94536082,15.8317526 C10.3214433,15.3863918 10.677732,14.931134 11.0142268,14.4659794 C11.4991753,13.8028866 11.9296907,13.1645361 12.3057732,12.5509278 C12.7610309,11.7789691 13.1173196,11.0614433 13.3746392,10.3983505 C13.6715464,9.61649485 13.82,8.92371134 13.82,8.32 C13.82,7.52824742 13.6270103,6.80082474 13.2410309,6.13773196 C12.8550515,5.48453608 12.3354639,4.96494845 11.682268,4.57896907 C11.0191753,4.19298969 10.2917526,4 9.5,4 C8.70824742,4 7.98082474,4.19298969 7.31773196,4.57896907 C6.66453608,4.96494845 6.14494845,5.48453608 5.75896907,6.13773196 C5.37298969,6.80082474 5.18,7.52824742 5.18,8.32 C5.18,8.92371134 5.32845361,9.61649485 5.62536082,10.3983505 C5.88268041,11.0614433 6.23896907,11.7789691 6.6942268,12.5509278 C7.07030928,13.1645361 7.50082474,13.8028866 7.9857732,14.4659794 C8.32226804,14.931134 8.6785567,15.3863918 9.05463918,15.8317526 L9.05463918,15.8317526 L9.5,16.3513402 Z M9.5,9.84907216 C9.07443299,9.84907216 8.71319588,9.70061856 8.41628866,9.40371134 C8.11938144,9.10680412 7.97092784,8.74556701 7.97092784,8.32 C7.97092784,8.0428866 8.04020619,7.78556701 8.17876289,7.54804124 C8.31731959,7.31051546 8.5028866,7.12247423 8.73546392,6.98391753 C8.96804124,6.84536082 9.2228866,6.77608247 9.5,6.77608247 C9.7771134,6.77608247 10.034433,6.84536082 10.2719588,6.98391753 C10.5094845,7.12247423 10.6975258,7.31051546 10.8360825,7.54804124 C10.9746392,7.78556701 11.0439175,8.0428866 11.0439175,8.32 C11.0439175,8.5971134 10.9746392,8.85195876 10.8360825,9.08453608 C10.6975258,9.3171134 10.5094845,9.50268041 10.2719588,9.64123711 C10.034433,9.77979381 9.7771134,9.84907216 9.5,9.84907216 Z" id="" fill="#999999" fill-rule="nonzero"></path>
                <rect id="矩形" x="0" y="0" width="20" height="20"></rect>
            </g>
        </g>
    </g>
</svg>