<?xml version="1.0" standalone="no"?><!DOCTYPE svg PUBLIC "-//W3C//DTD SVG 1.1//EN" "http://www.w3.org/Graphics/SVG/1.1/DTD/svg11.dtd"><svg t="1599726364086" class="icon" viewBox="0 0 1024 1024" version="1.1" xmlns="http://www.w3.org/2000/svg" p-id="2639" xmlns:xlink="http://www.w3.org/1999/xlink" width="64" height="64"><defs><style type="text/css"></style></defs><path d="M512 844.8c253.5424 0 460.8-195.7888 460.8-332.8s-207.2576-332.8-460.8-332.8S51.2 374.9888 51.2 512s207.2576 332.8 460.8 332.8z m0 51.2c-333.9776 0-512-267.9296-512-384 0-116.0704 178.0224-384 512-384S1024 395.9296 1024 512c0 116.0704-178.0224 384-512 384z m0-204.8a179.2 179.2 0 1 1 0-358.4 179.2 179.2 0 0 1 0 358.4z m0-51.2a128 128 0 1 0 0-256 128 128 0 0 0 0 256z" fill="#6E6E6E" p-id="2640"></path></svg>
