<?xml version="1.0" standalone="no"?><!DOCTYPE svg PUBLIC "-//W3C//DTD SVG 1.1//EN" "http://www.w3.org/Graphics/SVG/1.1/DTD/svg11.dtd"><svg t="1607938262821" class="icon" viewBox="0 0 1027 1024" version="1.1" xmlns="http://www.w3.org/2000/svg" p-id="11269" xmlns:xlink="http://www.w3.org/1999/xlink" width="22.064453125" height="22"><defs><style type="text/css"></style></defs><path d="M831.7 693.1h138.6c12.8 0 23.6 4.5 32.7 13.6 9.1 9 13.6 19.9 13.6 32.6 0 12.9-4.5 23.7-13.6 32.8-9 9-19.9 13.6-32.7 13.6H831.7c-12.8 0-23.7 4.5-32.7 13.6-9.1 9-13.6 19.9-13.6 32.6v138.7c0 12.7-4.5 23.6-13.6 32.6-9 9-19.9 13.6-32.7 13.6-12.7 0-23.7-4.5-32.6-13.6-9.1-9-13.6-19.9-13.6-32.6V831.7c0-38.3 13.5-70.9 40.6-98 27.1-27.1 59.7-40.5 98-40.5l0.2-0.1zM277.3 0c12.8 0 23.7 4.5 32.7 13.6 9.1 9 13.6 19.9 13.6 32.6v138.7c0 38.3-13.5 70.9-40.6 98-27.1 27.1-59.7 40.7-98 40.7H46.3c-12.7 0-23.6-4.5-32.7-13.7-9.1-9-13.6-19.9-13.6-32.7 0-12.7 4.5-23.6 13.6-32.6 9-9 19.9-13.6 32.7-13.6h138.6c12.8 0 23.7-4.5 32.7-13.6 9.1-9 13.6-19.9 13.6-32.6V46.2c0-12.7 4.5-23.7 13.6-32.6C253.7 4.4 264.6 0 277.3 0z m-231 693.1h138.6c38.3 0 70.9 13.6 98 40.7 27.1 27 40.6 59.7 40.6 98v138.5c0 12.9-4.5 23.7-13.6 32.8-9 9-19.9 13.6-32.7 13.6-12.7 0-23.6-4.5-32.6-13.6-9.1-9-13.6-19.9-13.6-32.8V831.7c0-12.9-4.5-23.7-13.6-32.6-9-9.2-19.9-13.7-32.7-13.7H46.2c-12.8 0-23.6-4.4-32.7-13.6C4.5 763 0 752 0 739.2c0-12.7 4.5-23.7 13.6-32.6 8.9-9.2 19.8-13.5 32.7-13.5zM739.3 0c12.8 0 23.7 4.5 32.7 13.6 9.1 9 13.6 19.9 13.6 32.6v138.7c0 12.7 4.5 23.7 13.6 32.6 9 9.2 19.9 13.6 32.7 13.6h138.6c12.8 0 23.7 4.5 32.7 13.6 9.1 9 13.6 19.9 13.6 32.8 0 12.7-4.5 23.6-13.6 32.6-9 9-19.9 13.6-32.7 13.6H831.8c-38.3 0-70.9-13.6-98-40.5-27.1-27.1-40.6-59.7-40.6-98V46.3c0-12.8 4.5-23.7 13.6-32.6 9-9.2 19.9-13.6 32.7-13.6l-0.2-0.1z m0 0" p-id="11270" fill="#8a8a8a"></path></svg>